<?xml version="1.0" encoding="UTF-8"?>
<svg id="Layer_1" data-name="Layer 1" xmlns="http://www.w3.org/2000/svg" xmlns:xlink="http://www.w3.org/1999/xlink" viewBox="0 0 1510.76 492.42" style="height:fit-content">
  <defs>
    <style>
      .cls-1 {
        fill: #5dd400;
      }

      .cls-1, .cls-2, .cls-3, .cls-4, .cls-5, .cls-6, .cls-7, .cls-8, .cls-9, .cls-10, .cls-11, .cls-12, .cls-13 {
        stroke-width: 0px;
      }

      .cls-2 {
        fill: #cbff0a;
      }

      .cls-3 {
        fill: #ffbb3f;
        opacity: .8;
      }

      .cls-4 {
        opacity: .1;
      }

      .cls-4, .cls-13 {
        fill: #c90027;
      }

      .cls-5 {
        opacity: .6;
      }

      .cls-5, .cls-8 {
        fill: #eb191a;
      }

      .cls-14 {
        filter: url(#drop-shadow-2);
      }

      .cls-6, .cls-15 {
        fill: #000;
      }

      .cls-7 {
        fill: #ffdb55;
        opacity: .9;
      }

      .cls-15 {
        stroke: #000;
        stroke-miterlimit: 10;
        stroke-width: 4px;
      }

      .cls-8 {
        opacity: .5;
      }

      .cls-9 {
        fill: #00b41e;
      }

      .cls-10 {
        fill: #fffc5f;
      }

      .cls-11 {
        fill: #94e53e;
      }

      .cls-12 {
        fill: #ff8515;
        opacity: .7;
      }
    </style>
    <filter id="drop-shadow-2" filterUnits="userSpaceOnUse">
      <feOffset dx="3" dy="3"/>
      <feGaussianBlur result="blur" stdDeviation="4"/>
      <feFlood flood-color="#000" flood-opacity=".23"/>
      <feComposite in2="blur" operator="in"/>
      <feComposite in="SourceGraphic"/>
    </filter>
  </defs>
  <g>
    <path class="cls-6" d="M223.5,307l11.18-6.55c4.05,10.6,13.49,17.73,26.6,17.73s23.13-6.94,23.13-19.27c0-28.72-56.28-19.47-56.28-56.66,0-18.89,14.46-30.45,32.19-30.45,13.3,0,24.48,6.36,30.84,14.46l-9.64,8.09c-4.63-6.55-11.95-10.21-20.81-10.21-10.79,0-20.24,5.59-20.24,17.15,0,27.56,56.28,17.92,56.28,57.24,0,20.24-16,31.99-35.66,31.99-17.15,0-31.61-9.25-37.58-23.51ZM273.03,174.78h13.88l-22.74,28.52h-8.09l16.96-28.52Z"/>
    <path class="cls-6" d="M424.32,251.87l-26.4,77.09h-13.11l-20.43-60.52-20.62,60.52h-13.11l-26.6-77.09h13.49l20.04,62.83,21.01-62.83h11.37l21.01,63.22,20.43-63.22h12.91Z"/>
    <path class="cls-6" d="M439.16,229.32c0-4.82,3.85-8.29,8.48-8.29s8.29,3.47,8.29,8.29c0,4.43-3.85,8.1-8.29,8.1s-8.48-3.66-8.48-8.1ZM441.66,251.87h11.95v77.09h-11.95v-77.09Z"/>
    <path class="cls-6" d="M559.42,318.95v10.02c-1.54.96-3.66,1.54-5.78,1.54-9.25,0-15.42-5.59-17.92-13.88-5.59,8.67-16.58,13.88-30.26,13.88-16.19,0-26.21-8.48-26.21-21.59s10.02-21.78,26.02-21.78h29.49v-6.36c0-11.95-9.64-18.5-21.78-18.5s-21.78,6.55-21.78,18.5h-11.95c0-18.31,15.23-30.45,33.92-30.45s33.54,12.14,33.54,30.45v28.14c0,7.13,3.66,10.02,7.9,10.02h4.82ZM534.75,302.18v-5.01h-26.98c-9.44,0-15.42,4.63-15.42,11.56s6.17,11.37,15.61,11.37c12.91,0,22.94-6.94,26.79-17.92Z"/>
    <path class="cls-6" d="M649.81,187.12v141.85h-11.95v-10.02c-7.32,7.13-17.15,11.56-28.14,11.56-22.16,0-40.09-17.92-40.09-40.09s17.92-40.09,40.09-40.09c10.99,0,20.81,4.43,28.14,11.56v-74.78h11.95ZM637.86,290.42c0-15.61-12.72-28.14-28.14-28.14s-28.14,12.53-28.14,28.14,12.53,28.14,28.14,28.14,28.14-12.53,28.14-28.14Z"/>
    <path class="cls-6" d="M752.53,292.16h-68.04c.77,14.84,12.91,26.4,28.14,26.4,11.56,0,21.59-6.75,25.83-16.77h12.72c-5.01,16.57-20.24,28.72-38.55,28.72-22.16,0-40.09-17.92-40.09-40.09s17.92-40.09,40.09-40.09,39.51,17.15,40.09,39.32l-.19,2.51ZM686.04,281.36h53c-3.66-11.18-14.07-19.08-26.4-19.08s-22.74,7.9-26.6,19.08Z"/>
    <path class="cls-6" d="M769.29,290.42c0-22.16,17.92-40.09,40.09-40.09,17.92,0,32.96,11.56,38.16,27.75h-12.72c-4.63-9.44-14.26-15.8-25.44-15.8-15.61,0-28.14,12.33-28.14,28.14s12.53,28.14,28.14,28.14c11.18,0,20.81-6.36,25.44-15.8h12.72c-5.2,16.19-20.24,27.75-38.16,27.75-22.16,0-40.09-17.92-40.09-40.09Z"/>
    <path class="cls-6" d="M881.46,263.44v43.75c0,7.13,5.4,11.76,11.56,11.76h8.87v9.06c-2.12,1.35-6.36,2.51-10.21,2.51-11.95,0-22.16-9.64-22.16-21.78v-45.29h-12.91v-11.56h12.91v-33.54h11.95v33.54h20.62v11.56h-20.62Z"/>
    <path class="cls-6" d="M1030.44,251.87l-26.4,77.09h-13.11l-20.43-60.52-20.62,60.52h-13.11l-26.6-77.09h13.49l20.04,62.83,21.01-62.83h11.37l21.01,63.22,20.43-63.22h12.91Z"/>
    <path class="cls-6" d="M1122.56,318.95v10.02c-1.54.96-3.66,1.54-5.78,1.54-9.25,0-15.42-5.59-17.92-13.88-5.59,8.67-16.58,13.88-30.26,13.88-16.19,0-26.21-8.48-26.21-21.59s10.02-21.78,26.02-21.78h29.49v-6.36c0-11.95-9.64-18.5-21.78-18.5s-21.78,6.55-21.78,18.5h-11.95c0-18.31,15.23-30.45,33.92-30.45s33.54,12.14,33.54,30.45v28.14c0,7.13,3.66,10.02,7.9,10.02h4.82ZM1097.89,302.18v-5.01h-26.98c-9.44,0-15.42,4.63-15.42,11.56s6.17,11.37,15.61,11.37c12.91,0,22.94-6.94,26.79-17.92Z"/>
  </g>
  <g>
    <path class="cls-15" d="M1268.83,292.44c0,20.15-16.28,36.62-37.78,36.62-20.34,0-37.01-14.92-37.01-33.71l18.79-.19c0,9.11,8.53,16.08,18.41,16.08,11.04,0,19.18-8.53,19.18-19.57s-8.33-18.02-18.99-18.02h-31.39l34.68-45.15h-40.69v-17.24h74.02l-37.2,47.28c21.12-.78,37.98,12.59,37.98,33.91Z"/>
    <path class="cls-15" d="M1332.18,328.87c-23.25.58-42.43-16.86-42.82-39.14-.39-10.27,3.88-19.18,9.49-26.93l38.94-51.54h22.09l-30.81,38.17c1.94-.39,4.26-.58,6.59-.58,18.6,1.36,37.2,17.05,37.59,38.94.39,22.67-18.41,40.5-41.08,41.08ZM1355.04,287.98c-.39-13.95-10.66-23.83-24.61-23.44-13.95.58-23.25,11.24-22.86,25.19.58,13.37,10.46,22.86,24.61,22.48,13.95-.58,23.44-11.04,22.86-24.22Z"/>
    <path class="cls-15" d="M1471.1,288.56c0,23.44-17.05,40.5-42.43,40.5-14.73,0-30.61-6.01-38.75-14.92l1.74-19.18h2.71c9.49,12.98,22.48,16.47,33.33,16.47,15.5,0,24.8-9.69,24.8-22.09,0-13.18-9.88-22.48-22.48-22.48-7.56,0-15.11,3.49-20.15,8.91l-15.11-9.3,5.81-54.83h63.36v17.24h-48.05l-3.29,28.09c5.81-4.65,13.18-7.36,21.89-7.36,21.51,0,36.62,16.66,36.62,38.95Z"/>
  </g>
  <g class="cls-14">
    <circle class="cls-9" cx="395.62" cy="127.62" r="41.51" transform="translate(25.63 317.12) rotate(-45)"/>
    <circle class="cls-1" cx="308.61" cy="71.64" r="40.3"/>
    <circle class="cls-11" cx="209.24" cy="65.72" r="34.89"/>
    <circle class="cls-2" cx="124.63" cy="112.93" r="33.69" transform="translate(-43.35 121.2) rotate(-45)"/>
    <circle class="cls-10" cx="70.48" cy="197.48" r="30.08"/>
    <circle class="cls-7" cx="65.53" cy="294.33" r="25.87" transform="translate(-180.35 119.77) rotate(-42.08)"/>
    <circle class="cls-3" cx="109.45" cy="385.17" r="24.06"/>
    <circle class="cls-12" cx="195.38" cy="437.26" r="21.66"/>
    <circle class="cls-5" cx="293.44" cy="443.55" r="18.05"/>
    <circle class="cls-8" cx="383.43" cy="399.59" r="15.04"/>
    <circle class="cls-4" cx="447.95" cy="228.68" r="11.43" transform="translate(-37.79 359.12) rotate(-42.08)"/>
  </g>
  <circle class="cls-13" cx="447.95" cy="228.68" r="11.71" transform="translate(-37.79 359.12) rotate(-42.08)"/>
</svg>