<?xml version="1.0" encoding="utf-8"?>
<!-- Generator: Adobe Illustrator 26.0.2, SVG Export Plug-In . SVG Version: 6.00 Build 0)  -->
<svg version="1.1" id="Warstwa_1" xmlns="http://www.w3.org/2000/svg" xmlns:xlink="http://www.w3.org/1999/xlink" x="0px" y="0px"
	 viewBox="0 0 241.6 52.2" style="enable-background:new 0 0 241.6 52.2;" xml:space="preserve">
<style type="text/css">
	.st0{fill:#CED5C3;}
	.st1{fill:#bb556b;}
	.st2{fill:#2B7F92;}
	.st3{fill:#C527E0;}
	.st4{fill:#6199A8;}
	.st5{fill:#5543BD;}
	.st6{fill:#DFA628;}
	.st7{fill:#9290B6;}
	.st8{fill:#BB556B;}
	.st9{fill:#572741;}
	.st10{fill:#90A78B;}
	.st11{fill:#B79245;}
	.st12{clip-path:url(#SVGID_00000019653597235953422310000012133543019085293245_);}
	.st13{clip-path:url(#SVGID_00000065781809709676148470000014535738829157052074_);}
	.st14{fill:#B1B1B1;}
	.st15{fill:#A42D6C;}
	.st16{clip-path:url(#SVGID_00000134244681787317231840000001062585712783860884_);}
	.st17{clip-path:url(#SVGID_00000071537287036628988600000015452246641345733791_);}
	.st18{clip-path:url(#SVGID_00000160891355696191544350000017955999449493822905_);}
	.st19{clip-path:url(#SVGID_00000110443029467893691220000017043625363087283103_);}
	.st20{clip-path:url(#SVGID_00000098932672324095353180000018052948545264139938_);}
	.st21{clip-path:url(#SVGID_00000097502264217279899810000017870536756423010967_);}
	.st22{clip-path:url(#SVGID_00000130623355216445918660000001970249161794180493_);}
	.st23{clip-path:url(#SVGID_00000042732258940400471760000015998508600154427783_);}
	.st24{clip-path:url(#SVGID_00000103241952335746062600000009422762883449104803_);}
	.st25{clip-path:url(#SVGID_00000121994960529242097210000015137867317704217533_);}
	.st26{clip-path:url(#SVGID_00000081606409451988438440000000951606493586339747_);}
	.st27{clip-path:url(#SVGID_00000166659775959176422520000010207383848986075312_);}
	.st28{clip-path:url(#SVGID_00000079469025553089488520000015116829270856306329_);}
	.st29{clip-path:url(#SVGID_00000164474697278699799870000013035276178444671124_);}
	.st30{clip-path:url(#SVGID_00000014601006839761014430000014169217136450667176_);}
	.st31{clip-path:url(#SVGID_00000146480177016944024960000018033492286246970272_);}
	.st32{clip-path:url(#SVGID_00000114761676185666007010000002528330923020330384_);}
	.st33{clip-path:url(#SVGID_00000168077856796962783740000008568662996378845074_);}
	.st34{clip-path:url(#SVGID_00000153695374318805633600000008265224950479697548_);}
	.st35{clip-path:url(#SVGID_00000127765551289884263950000015146474482044263826_);}
	.st36{clip-path:url(#SVGID_00000093879163635237703710000012072998088034256825_);}
	.st37{clip-path:url(#SVGID_00000045619571202877169830000012619637513755579043_);}
	.st38{clip-path:url(#SVGID_00000096763020512038605500000010675595316406113712_);}
	.st39{clip-path:url(#SVGID_00000111185620393609879820000000976089534102321797_);}
	.st40{clip-path:url(#SVGID_00000182506454415681897480000002627298626062558387_);}
	.st41{clip-path:url(#SVGID_00000039817336426977130720000013763434225764248752_);}
	.st42{clip-path:url(#SVGID_00000145053456538899607490000013501185118010149005_);}
	.st43{clip-path:url(#SVGID_00000145039129567768267940000001247886419367235996_);}
	.st44{clip-path:url(#SVGID_00000092424616487021855780000011997645469423579298_);}
	.st45{clip-path:url(#SVGID_00000026153109768547263980000002856211331150906770_);}
	.st46{clip-path:url(#SVGID_00000147215423536716027130000015994699445144285862_);}
	.st47{clip-path:url(#SVGID_00000053533605233153120980000000192072373298431118_);}
	.st48{clip-path:url(#SVGID_00000030453341417738711190000017012023874679467963_);}
	.st49{clip-path:url(#SVGID_00000032647131015886812090000011656514447419714215_);}
	.st50{clip-path:url(#SVGID_00000008131478983829061920000000605476228959125180_);}
	.st51{clip-path:url(#SVGID_00000130618920844408243050000008087305079364017547_);}
	.st52{clip-path:url(#SVGID_00000053546925055089891010000010642402697200573073_);}
	.st53{clip-path:url(#SVGID_00000121975055637427602620000000917170618749194655_);}
	.st54{fill:none;stroke:#5543BD;stroke-width:7.7;stroke-linecap:square;stroke-linejoin:bevel;stroke-miterlimit:10;}
	.st55{clip-path:url(#SVGID_00000129197650070956935490000015467000388601816201_);}
	.st56{clip-path:url(#SVGID_00000120529608998506227150000005874869929275224762_);}
</style>
<g>
	<g>
		<path class="st1" d="M10.2,20.2c-1.5,0-2.9-0.3-4.1-0.8c-1.2-0.5-2.3-1.2-3.2-2.2c-0.9-0.9-1.6-2-2.1-3.2c-0.5-1.2-0.7-2.5-0.7-4
			c0-1.4,0.2-2.7,0.7-4c0.5-1.2,1.2-2.3,2.1-3.2C3.7,2,4.8,1.3,6,0.8C7.3,0.3,8.7,0,10.2,0c1.5,0,2.9,0.3,4.1,0.8
			c1.2,0.5,2.3,1.2,3.2,2.2c0.9,0.9,1.6,2,2.1,3.2c0.5,1.2,0.7,2.5,0.7,4c0,1.4-0.2,2.7-0.7,4c-0.5,1.2-1.2,2.3-2.1,3.2
			c-0.9,0.9-2,1.6-3.2,2.2C13,20,11.7,20.2,10.2,20.2z M10.2,15.1c1,0,1.9-0.2,2.5-0.6c0.7-0.4,1.2-1,1.5-1.8
			c0.3-0.8,0.5-1.6,0.5-2.5c0-1-0.2-1.8-0.5-2.6c-0.3-0.7-0.8-1.3-1.5-1.8c-0.7-0.4-1.5-0.6-2.5-0.6c-1,0-1.9,0.2-2.5,0.6
			c-0.7,0.4-1.2,1-1.5,1.8c-0.3,0.7-0.5,1.6-0.5,2.6c0,0.9,0.2,1.8,0.5,2.5c0.3,0.8,0.8,1.3,1.5,1.8C8.3,14.9,9.1,15.1,10.2,15.1z"
			/>
		<path class="st1" d="M27.1,20.3c-1.2,0-2.2-0.3-3-0.9s-1.5-1.4-1.9-2.5c-0.5-1.1-0.7-2.5-0.7-4.2c0-1.7,0.2-3.1,0.7-4.2
			c0.4-1.1,1.1-2,1.9-2.5c0.8-0.6,1.7-0.9,2.8-0.9c1.1,0,2,0.2,2.7,0.8c0.6,0.5,1.1,1.2,1.4,2c0.3,0.8,0.5,1.6,0.6,2.5l-0.1,1.7
			c0-0.8-0.1-1.4-0.3-1.8s-0.5-0.7-0.8-0.9c-0.3-0.2-0.7-0.2-1.1-0.2c-0.8,0-1.4,0.3-1.8,1c-0.4,0.6-0.6,1.5-0.6,2.6
			s0.2,1.9,0.6,2.6c0.4,0.6,1,1,1.9,1c0.4,0,0.7-0.1,1-0.2c0.3-0.2,0.6-0.4,0.8-0.9c0.2-0.4,0.3-1,0.3-1.8l0.1,1.7
			c-0.1,0.9-0.3,1.7-0.5,2.5c-0.2,0.8-0.7,1.4-1.3,2C29.1,20,28.3,20.3,27.1,20.3z M36.7,20h-5.3V0.3h5.3V20z"/>
		<path class="st1" d="M44.4,20h-5.3V0.3h5.3V20z M48.7,20.3c-1.1,0-2-0.3-2.6-0.8s-1-1.2-1.3-2c-0.2-0.8-0.4-1.6-0.5-2.5l0.1-1.7
			c0,0.8,0.1,1.4,0.3,1.8c0.2,0.4,0.4,0.7,0.8,0.9c0.3,0.2,0.7,0.2,1,0.2c0.9,0,1.5-0.3,1.9-1c0.4-0.6,0.6-1.5,0.6-2.6
			s-0.2-1.9-0.6-2.6c-0.4-0.6-1-1-1.9-1c-0.4,0-0.7,0.1-1,0.2c-0.3,0.2-0.6,0.4-0.8,0.9s-0.3,1-0.3,1.8l-0.1-1.7
			c0.1-0.9,0.3-1.7,0.6-2.5s0.8-1.5,1.4-2c0.6-0.5,1.5-0.8,2.7-0.8c1.1,0,2,0.3,2.8,0.9c0.8,0.6,1.4,1.4,1.9,2.5s0.7,2.5,0.7,4.2
			c0,1.6-0.2,3-0.7,4.2s-1.1,2-1.9,2.5S49.8,20.3,48.7,20.3z"/>
		<path class="st1" d="M61.3,4.1h-5.3V0.3h5.3V4.1z M61.3,20h-5.3V5.5h5.3V20z"/>
		<path class="st1" d="M70.7,20.3c-1.5,0-2.9-0.3-4-1s-2-1.6-2.6-2.7c-0.6-1.1-0.9-2.4-0.9-3.9c0-1.5,0.3-2.7,0.9-3.9
			c0.6-1.1,1.5-2,2.6-2.7c1.1-0.7,2.5-1,4-1c1.6,0,3,0.3,4.2,1c1.2,0.7,2.1,1.6,2.7,2.7c0.6,1.1,0.9,2.4,0.9,3.9
			c0,1.4-0.3,2.7-0.9,3.9c-0.6,1.1-1.5,2-2.7,2.7S72.3,20.3,70.7,20.3z M70.8,16.1c0.5,0,0.8-0.1,1.2-0.3c0.3-0.2,0.6-0.5,0.8-1
			c0.2-0.5,0.3-1.1,0.3-2s-0.1-1.5-0.3-2c-0.2-0.5-0.5-0.8-0.8-1c-0.3-0.2-0.7-0.3-1.2-0.3s-0.8,0.1-1.2,0.3c-0.3,0.2-0.6,0.5-0.8,1
			c-0.2,0.5-0.3,1.1-0.3,2s0.1,1.5,0.3,2c0.2,0.5,0.5,0.8,0.8,1C69.9,16,70.3,16.1,70.8,16.1z"/>
		<path class="st1" d="M85.5,20h-5.3V5.5h5.3V20z M85.5,12.7L85.4,11c0.1-0.7,0.2-1.3,0.4-2s0.5-1.3,0.9-1.9s0.9-1,1.5-1.4
			c0.6-0.4,1.3-0.5,2.1-0.5c1.3,0,2.2,0.4,2.7,1.1C93.5,7,93.7,8,93.7,9.2c0,0.9-0.1,1.7-0.3,2.4c-0.2,0.7-0.4,1.2-0.7,1.6h-4.9
			c0.3-0.3,0.5-0.7,0.8-1.2c0.2-0.5,0.4-1,0.4-1.4c0-0.4-0.1-0.7-0.3-1c-0.2-0.3-0.5-0.4-0.9-0.4c-0.4,0-0.8,0.1-1.1,0.4
			c-0.4,0.3-0.7,0.6-0.9,1.2C85.6,11.2,85.5,11.9,85.5,12.7z"/>
		<path class="st1" d="M99.6,25.8c-0.7,0-1.5-0.1-2.2-0.2c-0.7-0.2-1.3-0.4-1.9-0.6c-0.6-0.3-1.1-0.5-1.5-0.8l1.8-4.6
			c0.5,0.5,1.1,0.9,1.8,1.2c0.6,0.3,1.2,0.5,1.8,0.5c0.5,0,1-0.1,1.3-0.3c0.3-0.2,0.6-0.6,0.8-1.1l0.6-1.4l1.5,0.7h-4.9L94,5.5h5.9
			l1.4,5.2l1.1,6l1.1-6l1.4-5.2h6.1L106,20.7c-0.6,1.8-1.4,3.1-2.4,3.9C102.6,25.4,101.3,25.8,99.6,25.8z"/>
		<path class="st1" d="M122.7,20h-5.3V5.5h5.3V20z M131.5,20h-5.3v-8.1c0-0.9-0.1-1.6-0.3-2c-0.2-0.5-0.7-0.7-1.4-0.7
			c-0.5,0-0.8,0.1-1.1,0.2c-0.3,0.2-0.4,0.4-0.5,0.9c-0.1,0.4-0.1,1-0.1,1.8l-0.1-1.7c0.1-0.9,0.3-1.7,0.6-2.5s0.8-1.5,1.5-2
			c0.7-0.5,1.6-0.8,2.8-0.8c1.3,0,2.3,0.4,3,1.2c0.7,0.8,1.1,2,1.1,3.4V20z M140.3,20H135v-8.1c0-0.9-0.1-1.6-0.3-2
			c-0.2-0.5-0.7-0.7-1.4-0.7c-0.5,0-0.8,0.1-1.1,0.2c-0.3,0.2-0.4,0.4-0.5,0.9c-0.1,0.4-0.1,1-0.1,1.8l-0.1-1.7
			c0.1-0.9,0.3-1.7,0.6-2.5s0.8-1.5,1.5-2c0.7-0.5,1.6-0.8,2.8-0.8c1.3,0,2.3,0.4,3,1.2c0.7,0.8,1.1,2,1.1,3.4V20z"/>
		<path class="st1" d="M147.9,4.1h-5.3V0.3h5.3V4.1z M147.9,20h-5.3V5.5h5.3V20z"/>
		<path class="st1" d="M157.4,20.3c-1.7,0-3.1-0.3-4.2-1s-2-1.5-2.6-2.7c-0.6-1.1-0.9-2.4-0.9-3.9s0.3-2.8,0.9-3.9
			c0.6-1.1,1.4-2,2.5-2.7c1.1-0.6,2.4-1,3.8-1c1.7,0,3,0.3,4.1,1c1,0.6,1.8,1.5,2.3,2.5s0.8,2.1,0.8,3.3c0,0.4,0,0.8,0,1.2
			c0,0.5-0.1,0.8-0.1,0.9h-10.6v-2.7h6.7l-0.7,0.3c0-0.8-0.2-1.5-0.5-1.9c-0.4-0.5-1-0.7-1.8-0.7c-0.8,0-1.4,0.2-1.8,0.6
			c-0.4,0.4-0.7,1.1-0.7,1.9v1.6c0,0.7,0.1,1.2,0.4,1.6c0.3,0.4,0.6,0.7,1.1,0.9c0.5,0.2,1,0.3,1.5,0.3c0.5,0,0.9-0.1,1.3-0.2
			c0.4-0.1,0.7-0.3,1-0.5c0.3-0.2,0.5-0.6,0.7-1l3.2,3.1c-0.5,0.7-1.3,1.4-2.3,2C160.4,20,159.1,20.3,157.4,20.3z"/>
		<path class="st1" d="M172.6,20.3c-1.1,0-2.2-0.1-3.2-0.3c-1-0.2-1.9-0.5-2.7-0.8c-0.8-0.3-1.4-0.7-1.9-1.1l2-3.8
			c0.6,0.4,1.2,0.7,1.9,1.1s1.4,0.6,2.1,0.8s1.3,0.3,1.9,0.3c0.4,0,0.7,0,0.9-0.1c0.2-0.1,0.3-0.2,0.3-0.4c0-0.2-0.1-0.4-0.4-0.5
			c-0.3-0.1-0.8-0.3-1.5-0.5l-2-0.5c-1-0.3-1.8-0.6-2.5-0.9s-1.2-0.8-1.6-1.4c-0.4-0.5-0.5-1.2-0.5-2c0-1.5,0.6-2.7,1.7-3.5
			s2.7-1.2,4.6-1.2c1.6,0,3,0.2,4.1,0.7s2,0.9,2.6,1.4l-1.8,3.8c-0.9-0.7-1.9-1.2-2.9-1.5c-1-0.3-1.8-0.5-2.5-0.5
			c-0.4,0-0.6,0.1-0.8,0.2c-0.2,0.1-0.3,0.3-0.3,0.4c0,0.2,0.1,0.4,0.4,0.6c0.3,0.2,0.9,0.4,1.9,0.6l1.5,0.4c1.6,0.5,2.8,1,3.5,1.7
			c0.8,0.7,1.2,1.6,1.2,2.8c0,0.9-0.2,1.7-0.7,2.4c-0.5,0.7-1.2,1.2-2.1,1.6C174.9,20.1,173.9,20.3,172.6,20.3z"/>
		<path class="st1" d="M193.3,20h-13.8v-3.7l3.3-3.4l4.2-3.5l-5.3,0.3h-1.9V5.5H193v3.7l-3.4,3.1l-4.5,3.8l5.4-0.2h2.9V20z"/>
		<path class="st1" d="M200.4,20h-5.3V0.3h5.3v6.4l-0.3,5l3-3.9l2-2.2h6.1l-7.4,7.9l-0.6,0.1l-2.7,3V20z M211.1,20h-5.9l-4-7.3
			l4.2-1.7L211.1,20z"/>
		<path class="st1" d="M225.8,20h-3c-0.5,0-1.1-0.1-1.6-0.3c-0.5-0.2-0.9-0.5-1.2-0.9c-0.3-0.4-0.5-0.9-0.5-1.6v-4.4l0.2-0.7
			c0-0.9-0.1-1.5-0.3-1.9c-0.2-0.4-0.7-0.6-1.6-0.6c-0.8,0-1.7,0.2-2.6,0.6c-0.9,0.4-1.6,1-2.2,1.6L210.8,8c0.6-0.5,1.3-1,2.1-1.5
			c0.8-0.4,1.6-0.8,2.5-1c0.9-0.2,1.9-0.4,2.9-0.4c1.9,0,3.3,0.5,4.4,1.4c1.1,0.9,1.6,2.3,1.6,4.2v4.4c0,0.3,0.1,0.5,0.2,0.7
			c0.1,0.1,0.3,0.2,0.5,0.2h0.9V20z M215,20.3c-1.1,0-2-0.3-2.7-0.9c-0.7-0.6-1.1-1.5-1.1-2.8c0-1.2,0.4-2.1,1.1-2.8
			c0.7-0.7,1.9-1.3,3.5-1.8l4.2-1.3l0.4,3l-3.2,1.1c-0.5,0.2-0.8,0.3-1,0.5c-0.2,0.2-0.2,0.3-0.2,0.5c0,0.2,0.1,0.4,0.3,0.5
			s0.5,0.2,0.8,0.2c0.4,0,0.8,0,1.1-0.1s0.6-0.2,0.8-0.4c0.2-0.2,0.4-0.4,0.5-0.7c0.1-0.3,0.1-0.6,0.1-1l0.1,1.4
			c-0.1,0.6-0.4,1.3-0.7,2c-0.3,0.7-0.8,1.3-1.4,1.8C216.9,20.1,216.1,20.3,215,20.3z"/>
		<path class="st1" d="M232.4,20h-5.3V5.5h5.3V20z M241.6,20h-5.3v-8.1c0-0.9-0.1-1.6-0.4-2c-0.2-0.5-0.8-0.7-1.6-0.7
			c-0.5,0-0.9,0.1-1.2,0.2c-0.3,0.2-0.5,0.4-0.6,0.9s-0.2,1-0.2,1.8l-0.1-1.7c0.1-0.9,0.3-1.7,0.7-2.5c0.3-0.8,0.9-1.5,1.5-2
			c0.7-0.5,1.6-0.8,2.7-0.8c1.4,0,2.4,0.4,3.2,1.2c0.8,0.8,1.2,2,1.2,3.4V20z M236.5,3.9h-4l1.8-3.6h5.9L236.5,3.9z"/>
	</g>
	<g>
		<path class="st1" d="M10.7,52H9.6l-6-19.7h1.1l4.8,16.2l0.7,2.6l0.7-2.6L16,32.3h1.2l5.1,16.2l0.7,2.6l0.7-2.6l4.8-16.2h1.1
			l-6,19.7h-1.1l-4.9-15.5l-0.9-3.3l-1,3.3L10.7,52z"/>
		<path class="st1" d="M42.1,52h-1L49,32.3h1L58,52h-1.1l-6.2-15.7l-1.1-3l-1.1,3L42.1,52z M54.5,45.1H44.4v-0.9h10.1V45.1z"/>
		<path class="st1" d="M72.8,52h-1V32.3h1V52z M79,43.5h-6.8v-0.9h7c1.2,0,2.2-0.2,3-0.5c0.8-0.3,1.5-0.8,1.9-1.5s0.7-1.6,0.7-2.7
			s-0.2-2-0.7-2.7c-0.5-0.7-1.1-1.2-1.9-1.5c-0.8-0.3-1.8-0.5-3-0.5h-6.9v-0.9h7c1.3,0,2.5,0.2,3.5,0.6c1,0.4,1.7,1,2.3,1.9
			c0.5,0.8,0.8,1.9,0.8,3.1c0,1.2-0.3,2.2-0.8,3s-1.3,1.4-2.3,1.8c-1,0.4-2.2,0.6-3.6,0.6V43.5z M86.1,52h-1.2l-3.8-6.3
			c-0.4-0.7-0.9-1.2-1.6-1.6S78,43.5,77,43.5l1.6-0.2c0.5,0,1,0.2,1.4,0.3c0.4,0.2,0.8,0.5,1.2,0.8c0.4,0.4,0.7,0.8,1,1.4L86.1,52z"
			/>
		<path class="st1" d="M108.2,52.2c-1.1,0-2.2-0.2-3.3-0.5s-2-0.9-2.9-1.7c-0.8-0.8-1.4-1.8-1.8-2.9l0.7-0.7
			c0.4,1.2,0.9,2.2,1.7,2.9c0.8,0.7,1.7,1.2,2.7,1.6c1,0.3,1.9,0.5,2.9,0.5c0.9,0,1.8-0.1,2.5-0.4c0.8-0.3,1.4-0.7,1.9-1.3
			c0.5-0.6,0.7-1.5,0.7-2.5c0-0.8-0.2-1.5-0.5-2c-0.3-0.6-0.9-1-1.6-1.4c-0.7-0.4-1.7-0.7-2.9-1l-2.5-0.6c-0.7-0.2-1.4-0.4-2.1-0.7
			c-0.6-0.3-1.2-0.6-1.6-1s-0.8-0.8-1.1-1.4c-0.3-0.5-0.4-1.2-0.4-2c0-1.1,0.3-2,0.8-2.8c0.6-0.7,1.3-1.3,2.2-1.7
			c0.9-0.4,1.9-0.6,2.9-0.6c1.8,0,3.4,0.4,4.6,1.2c1.2,0.8,2.1,2,2.7,3.5l-0.8,0.7c-0.4-1.5-1.2-2.6-2.3-3.3
			c-1.1-0.8-2.5-1.1-4.2-1.1c-0.9,0-1.7,0.2-2.5,0.5c-0.8,0.3-1.4,0.8-1.8,1.4c-0.5,0.6-0.7,1.4-0.7,2.3c0,1.2,0.4,2.1,1.1,2.8
			c0.7,0.6,1.8,1.1,3.3,1.5l2.6,0.6c0.8,0.2,1.6,0.4,2.3,0.7c0.7,0.3,1.3,0.6,1.8,1c0.5,0.4,0.9,0.9,1.1,1.5
			c0.3,0.6,0.4,1.3,0.4,2.1c0,1.1-0.3,2.1-0.9,2.8c-0.6,0.8-1.3,1.3-2.2,1.7C110.4,52.1,109.3,52.2,108.2,52.2z"/>
		<path class="st1" d="M142.8,52h-14.5v-0.7l11.8-16.7l1.1-1.5l-1.6,0.1h-10.7v-0.9h13.3V33l-11.9,16.8l-1.1,1.4l1.5-0.1h12V52z"/>
		<path class="st1" d="M156.3,52h-1l7.9-19.7h1l7.9,19.7h-1.1l-6.2-15.7l-1.1-3l-1.1,3L156.3,52z M168.7,45.1h-10.1v-0.9h10.1V45.1z
			"/>
		<path class="st1" d="M190.7,52h-1.1l-6-19.7h1.1l4.8,16.2l0.7,2.6l0.7-2.6l5.1-16.2h1.2l5.1,16.2l0.7,2.6l0.7-2.6l4.8-16.2h1.1
			l-6,19.7h-1.1l-4.9-15.5l-0.9-3.3l-1,3.3L190.7,52z"/>
		<path class="st1" d="M222.1,52h-1l7.9-19.7h1L238,52h-1.1l-6.2-15.7l-1.1-3l-1.1,3L222.1,52z M234.5,45.1h-10.1v-0.9h10.1V45.1z"
			/>
	</g>
</g>
</svg>
